<?xml version="1.0" encoding="utf-8"?>
<!-- Generator: Adobe Illustrator 22.1.0, SVG Export Plug-In . SVG Version: 6.00 Build 0)  -->
<svg version="1.1" id="Layer_1" xmlns="http://www.w3.org/2000/svg" xmlns:xlink="http://www.w3.org/1999/xlink" x="0px" y="0px"
	 viewBox="0 0 1000 1000" style="enable-background:new 0 0 1000 1000;" xml:space="preserve">
<path d="M1000,0H0v1000h497c0.9,0.6,1.9,1,3,1h490c1.1,0,2.1-0.4,3-1h7V0z M990,990h-0.5L524.2,735.1l424.9-496
	c0.3-0.4,0.5-0.8,0.7-1.2c19.3-24,32.9-47.8,40.1-70.7V990z M501.4,990L75.5,500.7L968.6,990H501.4z M488.1,990H305.9l90.4-105.5
	L488.1,990z M751.1,12.7C751.1,12.7,751.1,12.7,751.1,12.7c62,0,115.8,8.5,155.7,24.4c19.9,8,36.3,17.8,48.9,29.2
	c12.5,11.4,21.3,24.4,26,38.7c8.2,25,4.2,53.5-11.8,84.7c-16.2,31.4-43.6,64-81.7,96.8c-38.4,33.2-85.6,64.9-140.1,94.1
	c-56.6,30.4-118.8,56.7-184.6,78.4c-55.9,18.4-111.9,32.5-166.6,42c-52.7,9.1-103.1,13.8-149.6,13.8c-62,0-115.8-8.5-155.7-24.4
	c-19.9-8-36.3-17.8-48.9-29.2c-12.5-11.4-21.3-24.4-26-38.7c-8.2-25-4.2-53.5,11.8-84.7c16.2-31.4,43.6-64,81.7-96.8
	c38.4-33.2,85.6-64.9,140.1-94.1c56.6-30.4,118.8-56.7,184.6-78.4c55.9-18.4,111.9-32.5,166.6-42C654.2,17.4,704.5,12.7,751.1,12.7
	C751.1,12.7,751.1,12.7,751.1,12.7z M247.2,524.9c92.9,0,204.2-18.4,319.3-56.3c124.5-41,231.9-97.6,308.1-157.9L515.3,730.2
	L107.1,506.6C145.7,518.7,193.3,524.9,247.2,524.9z M990,98.6C972.9,52.8,920,22.9,844.5,10H990V98.6z M643.9,10
	c-66.6,8.6-138.6,24.8-212.1,49C212.6,131.1,46.6,251.8,10,355.1V10H643.9z M10,433.3c4.6,10.7,11.2,20.5,19.7,29.4
	c0.2,0.6,0.5,1.2,1,1.8l358.9,412.4l-93.4,109c-1,1.2-1.4,2.7-1.1,4.2H10V433.3z"/>
</svg>
